<svg width="110" height="103" viewBox="0 0 110 103" fill="none" xmlns="http://www.w3.org/2000/svg">
<g clip-path="url(#clip0_147_41)">
<mask id="mask0_147_41" style="mask-type:luminance" maskUnits="userSpaceOnUse" x="-9" y="-15" width="124" height="124">
<path d="M113.721 -14.3875L-8.79468 -14.0702L-8.47728 108.483L114.038 108.166L113.721 -14.3875Z" fill="white"/>
</mask>
<g mask="url(#mask0_147_41)">
<path d="M56.4936 65.8497L58.426 49.7681L64.9606 49.7512L65.5402 44.9267L81.8766 44.8844L79.3646 65.7905L56.4936 65.8497Z" fill="#27272A"/>
<path d="M81.7091 5.49754L92.3274 5.47004L91.6511 11.099L97.3692 11.0842L96.6929 16.713L102.411 16.6982L101.735 22.3249L107.453 22.3101L106.197 32.7645L109.464 32.7561L104.826 71.3507L101.559 71.3592L100.303 81.8136L94.5852 81.8284L93.9089 87.4551L88.1909 87.4699L87.5146 93.0988L81.7964 93.1136L81.1201 98.7426L69.6861 98.7722L69.2031 102.792L29.1785 102.896L29.6617 98.8759L19.0434 98.9034L19.7196 93.2743L14.0016 93.2891L14.6779 87.6603L8.95985 87.6751L9.63589 82.0484L3.91786 82.0632L5.17398 71.6088L0.273655 71.6215L4.91111 33.0269L9.81143 33.0142L11.0675 22.5598L16.7856 22.5449L17.4616 16.9182L23.1799 16.9034L23.8561 11.2746L28.7565 11.2619L29.3363 6.43611L41.588 6.40438L42.3609 -0.0276842L82.3853 -0.131341L81.7091 5.49754ZM39.3725 11.2344L38.655 17.2064L33.347 17.2202L32.8089 21.6982L27.5008 21.712L26.8727 26.938L21.5625 26.9518L20.9345 32.1781L15.6266 32.1918L11.4105 67.2787L16.7187 67.265L15.5523 76.9713L20.8628 76.9576L20.2347 82.1839L30.8508 82.1564L30.223 87.3825L66.6259 87.2882L67.2539 82.0621L77.87 82.0346L78.4981 76.8083L83.806 76.7946L84.9724 67.0882L90.2826 67.0744L94.5883 31.2416L89.2779 31.2553L90.4443 21.549L85.1361 21.5627L85.7637 16.3387L75.1476 16.3662L75.7757 11.1401L39.3725 11.2344Z" fill="#27272A"/>
</g>
</g>
<defs>
<clipPath id="clip0_147_41">
<rect width="110" height="103" fill="white"/>
</clipPath>
</defs>
</svg>
