<svg width="190" height="54" viewBox="0 0 190 54" fill="none" xmlns="http://www.w3.org/2000/svg">
<g clip-path="url(#clip0_4_23)">
<mask id="mask0_4_23" style="mask-type:alpha" maskUnits="userSpaceOnUse" x="-53" y="-32" width="275" height="97">
<path d="M222 65H-52.5V-22.5L222 -32V65ZM40.5 4.5L33.5 54H70.5L82.5 24.5L76 4.5H40.5Z" fill="white"/>
</mask>
<g mask="url(#mask0_4_23)">
<path d="M33.85 38.14C33.49 40.54 32.68 42.67 31.42 44.53C30.22 46.39 28.75 47.95 27.01 49.21C25.27 50.41 23.35 51.34 21.25 52C19.21 52.6 17.2 52.9 15.22 52.9C13.54 52.9 11.59 52.72 9.37 52.36C7.21 52.06 5.29 51.67 3.61 51.19C2.95 50.95 2.53 50.65 2.35 50.29C2.17 49.87 2.14 49.24 2.26 48.4L4.06 35.98C4.12 35.74 4.24 35.62 4.42 35.62C4.66 35.56 4.78 35.65 4.78 35.89C4.9 38.77 5.29 41.23 5.95 43.27C6.61 45.25 7.45 46.9 8.47 48.22C9.55 49.48 10.75 50.41 12.07 51.01C13.45 51.55 14.86 51.82 16.3 51.82C17.92 51.82 19.39 51.52 20.71 50.92C22.09 50.32 23.26 49.54 24.22 48.58C25.18 47.56 25.96 46.42 26.56 45.16C27.16 43.9 27.55 42.64 27.73 41.38C28.03 39.34 27.67 37.69 26.65 36.43C25.63 35.11 24.28 33.97 22.6 33.01C20.92 32.05 19.09 31.15 17.11 30.31C15.13 29.47 13.3 28.51 11.62 27.43C10 26.35 8.68 25.03 7.66 23.47C6.7 21.91 6.4 19.9 6.76 17.44C7 15.82 7.57 14.32 8.47 12.94C9.37 11.56 10.54 10.39 11.98 9.43C13.42 8.41 15.1 7.63 17.02 7.09C19 6.55 21.1 6.28 23.32 6.28C25.36 6.28 27.4 6.49 29.44 6.91C31.48 7.33 33.34 7.87 35.02 8.53C35.74 8.83 36.19 9.13 36.37 9.43C36.55 9.73 36.55 10.39 36.37 11.41L34.66 23.92C34.66 24.16 34.54 24.28 34.3 24.28C34.06 24.28 33.94 24.16 33.94 23.92C34.18 21.76 34.09 19.69 33.67 17.71C33.25 15.67 32.53 13.87 31.51 12.31C30.55 10.75 29.29 9.52 27.73 8.62C26.17 7.66 24.37 7.18 22.33 7.18C19.87 7.18 17.74 7.84 15.94 9.16C14.14 10.42 13.09 12.01 12.79 13.93C12.55 15.49 12.97 16.78 14.05 17.8C15.13 18.76 16.51 19.66 18.19 20.5C19.93 21.28 21.79 22.12 23.77 23.02C25.75 23.86 27.55 24.94 29.17 26.26C30.85 27.52 32.14 29.11 33.04 31.03C34 32.89 34.27 35.26 33.85 38.14ZM47.4231 30.22C47.1831 33.94 47.1831 37.15 47.4231 39.85C47.7231 42.55 48.2031 44.8 48.8631 46.6C49.5831 48.34 50.4531 49.63 51.4731 50.47C52.5531 51.31 53.6931 51.73 54.8931 51.73C57.1131 51.73 58.9431 50.83 60.3831 49.03C61.8831 47.23 63.0831 45.1 63.9831 42.64C64.8831 40.12 65.5431 37.57 65.9631 34.99C66.3831 32.41 66.6531 30.34 66.7731 28.78C67.0731 25.06 67.0731 21.85 66.7731 19.15C66.5331 16.39 66.0531 14.14 65.3331 12.4C64.6731 10.66 63.8331 9.37 62.8131 8.53C61.7931 7.69 60.6531 7.27 59.3931 7.27C57.1731 7.27 55.3131 8.17 53.8131 9.97C52.3731 11.77 51.2031 13.93 50.3031 16.45C49.4031 18.91 48.7131 21.43 48.2331 24.01C47.8131 26.59 47.5431 28.66 47.4231 30.22ZM53.8131 52.72C51.4731 52.72 49.3131 52.21 47.3331 51.19C45.3531 50.17 43.6731 48.67 42.2931 46.69C40.9731 44.71 40.0431 42.28 39.5031 39.4C38.9631 36.52 38.9631 33.22 39.5031 29.5C40.0431 25.78 40.9731 22.48 42.2931 19.6C43.6731 16.72 45.2931 14.29 47.1531 12.31C49.0731 10.33 51.1731 8.83 53.4531 7.81C55.7331 6.79 58.0431 6.28 60.3831 6.28C62.7231 6.28 64.8831 6.79 66.8631 7.81C68.9031 8.83 70.5831 10.33 71.9031 12.31C73.2831 14.29 74.2431 16.72 74.7831 19.6C75.3231 22.48 75.3231 25.78 74.7831 29.5C74.2431 33.22 73.2831 36.52 71.9031 39.4C70.5231 42.28 68.8731 44.71 66.9531 46.69C65.0931 48.67 63.0231 50.17 60.7431 51.19C58.4631 52.21 56.1531 52.72 53.8131 52.72ZM99.7483 10.6L99.2983 13.66C101.338 11.44 103.498 9.67 105.778 8.35C108.058 6.97 110.518 6.28 113.158 6.28C115.978 6.28 118.228 7 119.908 8.44C121.648 9.88 122.698 11.83 123.058 14.29C125.098 11.95 127.318 10.03 129.718 8.53C132.118 7.03 134.698 6.28 137.458 6.28C140.938 6.28 143.548 7.36 145.288 9.52C147.088 11.68 147.748 14.53 147.268 18.07L143.938 41.2C143.458 44.98 143.548 47.59 144.208 49.03C144.928 50.41 146.218 51.1 148.078 51.1C148.318 51.1 148.408 51.25 148.348 51.55C148.288 51.85 148.168 52 147.988 52H128.818C128.638 52 128.548 51.85 128.548 51.55C128.608 51.25 128.758 51.1 128.998 51.1C130.858 51.1 132.328 50.41 133.408 49.03C134.548 47.59 135.358 44.98 135.838 41.2L139.438 16.45C139.858 13.57 139.588 11.47 138.628 10.15C137.668 8.77 136.378 8.08 134.758 8.08C133.738 8.08 132.688 8.29 131.608 8.71C130.588 9.13 129.568 9.7 128.548 10.42C127.528 11.08 126.538 11.86 125.578 12.76C124.678 13.6 123.868 14.47 123.148 15.37C123.148 15.79 123.118 16.24 123.058 16.72C123.058 17.14 123.028 17.59 122.968 18.07L119.638 41.2C119.158 44.98 119.248 47.59 119.908 49.03C120.628 50.41 121.918 51.1 123.778 51.1C124.018 51.1 124.108 51.25 124.048 51.55C123.988 51.85 123.868 52 123.688 52H104.518C104.338 52 104.248 51.85 104.248 51.55C104.308 51.25 104.458 51.1 104.698 51.1C106.558 51.1 108.028 50.41 109.108 49.03C110.248 47.59 111.058 44.98 111.538 41.2L115.138 16.45C115.558 13.57 115.288 11.47 114.328 10.15C113.368 8.77 112.078 8.08 110.458 8.08C109.498 8.08 108.508 8.29 107.488 8.71C106.468 9.07 105.448 9.58 104.428 10.24C103.468 10.9 102.538 11.65 101.638 12.49C100.738 13.33 99.8983 14.17 99.1183 15.01L95.3383 41.2C94.8583 44.98 94.9483 47.59 95.6083 49.03C96.3283 50.41 97.6183 51.1 99.4783 51.1C99.7183 51.1 99.8083 51.25 99.7483 51.55C99.6883 51.85 99.5683 52 99.3883 52H80.2183C80.0383 52 79.9483 51.85 79.9483 51.55C80.0083 51.25 80.1583 51.1 80.3983 51.1C82.2583 51.1 83.7283 50.41 84.8083 49.03C85.9483 47.59 86.7583 44.98 87.2383 41.2L90.4783 19.15C90.9583 15.37 90.8683 12.79 90.2083 11.41C89.5483 9.97 88.2883 9.25 86.4283 9.25C86.1883 9.25 86.0983 9.1 86.1583 8.8C86.2183 8.5 86.3383 8.35 86.5183 8.35C87.2383 8.35 88.1083 8.29 89.1283 8.17C90.2083 8.05 91.2583 7.9 92.2783 7.72C93.2983 7.54 94.2283 7.39 95.0683 7.27C95.9683 7.09 96.5983 7 96.9583 7C99.1783 6.82 100.108 8.02 99.7483 10.6ZM159.719 39.67C159.479 41.59 159.449 43.24 159.629 44.62C159.809 45.94 160.139 47.05 160.619 47.95C161.159 48.79 161.789 49.42 162.509 49.84C163.289 50.2 164.069 50.38 164.849 50.38C166.769 50.38 168.629 49.75 170.429 48.49C172.229 47.17 173.849 45.7 175.289 44.08L178.619 20.68C176.519 21.4 174.419 22.33 172.319 23.47C170.219 24.55 168.299 25.87 166.559 27.43C164.819 28.93 163.319 30.7 162.059 32.74C160.859 34.72 160.079 37.03 159.719 39.67ZM161.249 52.72C159.629 52.72 158.159 52.42 156.839 51.82C155.519 51.22 154.409 50.38 153.509 49.3C152.669 48.22 152.069 46.93 151.709 45.43C151.349 43.93 151.289 42.28 151.529 40.48C151.949 37.72 152.849 35.35 154.229 33.37C155.669 31.39 157.559 29.62 159.899 28.06C162.239 26.5 164.969 25.09 168.089 23.83C171.269 22.51 174.809 21.13 178.709 19.69L179.339 15.55C179.759 12.79 179.429 10.72 178.349 9.34C177.269 7.9 175.619 7.18 173.399 7.18C171.599 7.18 169.829 7.66 168.089 8.62C166.409 9.52 164.879 10.75 163.499 12.31C162.119 13.87 160.889 15.67 159.809 17.71C158.789 19.69 158.009 21.76 157.469 23.92C157.409 24.16 157.259 24.28 157.019 24.28C156.839 24.28 156.749 24.16 156.749 23.92L158.639 11.41C158.759 10.39 158.939 9.73 159.179 9.43C159.419 9.13 159.959 8.83 160.799 8.53C162.659 7.87 164.729 7.33 167.009 6.91C169.289 6.49 171.329 6.28 173.129 6.28C174.869 6.28 176.639 6.49 178.439 6.91C180.239 7.27 181.829 7.9 183.209 8.8C184.589 9.7 185.669 10.9 186.449 12.4C187.229 13.9 187.469 15.79 187.169 18.07L183.929 39.85C183.449 43.63 183.539 46.24 184.199 47.68C184.859 49.06 186.119 49.75 187.979 49.75C188.219 49.75 188.309 49.9 188.249 50.2C188.189 50.5 188.069 50.65 187.889 50.65C187.169 50.65 186.269 50.71 185.189 50.83C184.169 50.95 183.149 51.1 182.129 51.28C181.109 51.46 180.149 51.64 179.249 51.82C178.409 51.94 177.809 52 177.449 52C175.229 52.18 174.299 50.98 174.659 48.4L175.109 45.43C173.069 47.59 170.909 49.36 168.629 50.74C166.349 52.06 163.889 52.72 161.249 52.72Z" fill="#27272A"/>
</g>
<path d="M60.4916 35.2889L61.3614 28.2052H64.2407L64.5016 26.0801H71.6998L70.5691 35.2889H60.4916Z" fill="#27272A"/>
<path d="M71.6709 8.72524H76.3496L76.0452 11.2047H78.5647L78.2603 13.6841H80.7798L80.4755 16.1626H82.995L82.4296 20.7676H83.869L81.7817 37.7679H80.3422L79.7768 42.3729H77.2573L76.9529 44.8514H74.4334L74.129 47.3308H71.6094L71.305 49.8103H66.2669L66.0495 51.5811H48.4137L48.6312 49.8103H43.9525L44.2569 47.3308H41.7374L42.0418 44.8514H39.5223L39.8266 42.3729H37.3071L37.8725 37.7679H35.7133L37.8007 20.7676H39.9599L40.5253 16.1626H43.0448L43.3491 13.6841H45.8687L46.1731 11.2047H48.3323L48.5933 9.07903H53.9917L54.3396 6.24581H71.9753L71.6709 8.72524ZM53.01 11.2047L52.687 13.8353H50.3482L50.106 15.8078H47.7671L47.4844 18.1098H45.1446L44.8619 20.4119H42.5231L40.6254 35.8671H42.9643L42.4393 40.1426H44.7792L44.4965 42.4447H49.1742L48.8916 44.7467H64.9316L65.2143 42.4447H69.892L70.1747 40.1426H72.5135L73.0385 35.8671H75.3783L77.3164 20.0833H74.9765L75.5015 15.8078H73.1626L73.4451 13.5067H68.7674L69.0501 11.2047H53.01Z" fill="#27272A"/>
</g>
<defs>
<clipPath id="clip0_4_23">
<rect width="190" height="54" fill="white"/>
</clipPath>
</defs>
</svg>
